<?xml version="1.0" encoding="UTF-8"?> <svg xmlns="http://www.w3.org/2000/svg" xmlns:xlink="http://www.w3.org/1999/xlink" id="Group_182209" data-name="Group 182209" width="100.034" height="51.785" viewBox="0 0 100.034 51.785"><defs><clipPath id="clip-path"><rect id="Rectangle_57819" data-name="Rectangle 57819" width="100.034" height="51.785" fill="#fff"></rect></clipPath></defs><g id="Group_182208" data-name="Group 182208" clip-path="url(#clip-path)"><path id="Path_100663" data-name="Path 100663" d="M6.744,33.934a19.864,19.864,0,0,0,23.436,1.89c-11.964-3.9-20.581-2.555-23.436-1.89m32.21-19.247a19.275,19.275,0,0,0-2.012-5.093A343.6,343.6,0,0,0,9.688,30.981,148.2,148.2,0,0,1,38.954,14.687m-2.388,14.78A19.634,19.634,0,0,0,38.916,23.9,77.407,77.407,0,0,0,9.395,32.279c8.32-3.365,20.521-3.182,27.17-2.812m-28.249.6A243.883,243.883,0,0,0,30.486,2.787,19.841,19.841,0,0,0,25.11.368,146.512,146.512,0,0,1,8.124,30.234ZM15.937,0a19.638,19.638,0,0,0-5.5,1.944c.4,6.854.478,20.179-3.414,28.6A75.814,75.814,0,0,0,15.937,0M0,19.209A19.427,19.427,0,0,0,5.6,32.857c.578-2.137,2.576-11.478-2.1-24.77A19.34,19.34,0,0,0,0,19.209" transform="translate(0 -0.001)" fill="#fff"></path><path id="Path_100664" data-name="Path 100664" d="M236.039,23.548a31.022,31.022,0,0,1-3.742.177c-2.054,0-4.089-.413-4.089-3.657V9.372a.389.389,0,0,1,.385-.392h.978a.389.389,0,0,1,.383.392v10.7c0,1.495.327,2.045,2.361,2.045h3.7a.21.21,0,0,1,.211.236v.924a.276.276,0,0,1-.192.275" transform="translate(-182.276 -7.173)" fill="#fff"></path><path id="Path_100665" data-name="Path 100665" d="M280.392,38.779h-.174c-1.3,0-3.953-.748-3.953-4.621V28.221a.359.359,0,0,1,.346-.393h1a.36.36,0,0,1,.346.393v5.937c0,2.361.978,3.107,2.263,3.107h.174c1.285,0,2.265-.746,2.265-3.107V28.221a.36.36,0,0,1,.345-.393h1a.36.36,0,0,1,.346.393v5.937c0,3.874-2.649,4.621-3.954,4.621" transform="translate(-220.66 -22.227)" fill="#fff"></path><path id="Path_100666" data-name="Path 100666" d="M338.159,23.548a31.052,31.052,0,0,1-3.743.177c-2.054,0-4.088-.413-4.088-3.657V9.372a.389.389,0,0,1,.384-.392h.979a.389.389,0,0,1,.383.392v10.7c0,1.495.325,2.045,2.361,2.045h3.7a.21.21,0,0,1,.211.236v.924a.276.276,0,0,1-.192.275" transform="translate(-263.841 -7.173)" fill="#fff"></path><path id="Path_100667" data-name="Path 100667" d="M382.508,38.779h-.172c-1.3,0-3.954-.748-3.954-4.621V28.221a.36.36,0,0,1,.346-.393h1a.36.36,0,0,1,.346.393v5.937c0,2.361.978,3.107,2.265,3.107h.172c1.287,0,2.265-.746,2.265-3.107V28.221a.36.36,0,0,1,.346-.393h1a.36.36,0,0,1,.346.393v5.937c0,3.874-2.649,4.621-3.954,4.621" transform="translate(-302.223 -22.227)" fill="#fff"></path><path id="Path_100668" data-name="Path 100668" d="M239.515,120.863h-1.056a.327.327,0,0,1-.326-.335V108.182c0-.2-.057-.217-.133-.217s-.135.04-.192.217l-2.38,6.252c-.193.511-.4.785-.9.785h-1c-.5,0-.71-.274-.9-.785l-2.38-6.252c-.057-.177-.115-.217-.192-.217s-.135.02-.135.217v12.346a.326.326,0,0,1-.326.335h-1.054c-.213,0-.327-.157-.327-.393V107.651c0-1.317.556-1.4,1.3-1.4h.71c.845,0,1.036.256,1.439,1.317l2.227,5.977c.057.176.076.176.133.176s.076,0,.135-.176l2.227-5.977c.4-1.062.632-1.317,1.438-1.317h.71c.749,0,1.306.079,1.306,1.4V120.47c0,.236-.115.393-.326.393" transform="translate(-182.278 -84.868)" fill="#fff"></path><path id="Path_100669" data-name="Path 100669" d="M302.454,135.51c-2.822,0-4.261-1.907-4.261-4.8v-1.494c0-2.89,1.439-4.8,4.261-4.8s4.279,1.908,4.279,4.8v1.494c0,2.89-1.457,4.8-4.279,4.8m2.591-6.291c0-2-.786-3.283-2.591-3.283-1.785,0-2.572,1.257-2.572,3.283v1.494c0,2.006.767,3.283,2.572,3.283,1.785,0,2.591-1.257,2.591-3.283Z" transform="translate(-238.174 -99.379)" fill="#fff"></path><path id="Path_100670" data-name="Path 100670" d="M359.612,135.374h-1a.359.359,0,0,1-.346-.393v-7.019c0-1.474-.364-2.045-1.67-2.045h-1.362c-1.306,0-1.671.571-1.671,2.045v7.019a.358.358,0,0,1-.345.393h-1a.359.359,0,0,1-.346-.393v-7.019c0-3.027,2.053-3.539,3.359-3.539H356.6c1.306,0,3.359.511,3.359,3.539v7.019a.359.359,0,0,1-.346.393" transform="translate(-281.052 -99.38)" fill="#fff"></path><path id="Path_100671" data-name="Path 100671" d="M411.582,130.517h-6.43v.235c0,2.262,1.036,3.3,2.8,3.3a23.106,23.106,0,0,0,3.282-.275h.1a.273.273,0,0,1,.306.275v.668c0,.256-.076.393-.383.453a15.725,15.725,0,0,1-3.3.334c-2.206,0-4.49-1.081-4.49-4.856v-1.377c0-2.791,1.516-4.856,4.26-4.856,2.8,0,4.222,2.045,4.222,4.836v.827c0,.256-.133.432-.364.432m-1.344-1.416c0-2.1-.825-3.165-2.515-3.165-1.651,0-2.572,1.139-2.572,3.165v.1h5.086Z" transform="translate(-322.256 -99.379)" fill="#fff"></path><path id="Path_100672" data-name="Path 100672" d="M461.018,139.818a14.6,14.6,0,0,1-3.167-.335c-.27-.078-.365-.176-.365-.413v-.55a.332.332,0,0,1,.346-.335h.058a27.006,27.006,0,0,0,3.128.236c1.727,0,2.265-.432,2.265-2.5v-.1a9.876,9.876,0,0,1-2.13.236c-2.208,0-4.3-.786-4.3-4.07V125.5a.389.389,0,0,1,.385-.392h.921a.388.388,0,0,1,.383.392v6.488c0,2.1,1,2.6,2.611,2.6a10.891,10.891,0,0,0,2.092-.256V125.5a.388.388,0,0,1,.383-.392h.921a.388.388,0,0,1,.383.392v10.42c0,3.086-1.3,3.893-3.915,3.893" transform="translate(-364.899 -99.931)" fill="#fff"></path><path id="Path_100673" data-name="Path 100673" d="M52.637,234.946c.053,0,.076.029.082.088l.4,4.285c.006.064-.023.093-.088.093h-.572c-.053,0-.082-.029-.088-.093l-.263-3.065-1.156,2.937a.119.119,0,0,1-.117.076h-.484a.1.1,0,0,1-.111-.076l-1.156-2.937-.269,3.065c-.006.064-.035.093-.088.093h-.572c-.064,0-.093-.029-.088-.093l.4-4.285c.006-.058.035-.088.082-.088h.578c.164,0,.216.047.28.228l1.191,3.088,1.185-3.094c.07-.181.123-.222.28-.222Z" transform="translate(-38.391 -187.657)" fill="#fff"></path><path id="Path_100674" data-name="Path 100674" d="M83.408,235.285a2.8,2.8,0,0,1,.374,1.787,2.76,2.76,0,0,1-.374,1.775c-.28.356-.712.479-1.46.479a1.691,1.691,0,0,1-1.459-.479,4.431,4.431,0,0,1,0-3.562c.286-.368.718-.484,1.459-.484s1.179.117,1.46.484m-2.329,3.065c.134.216.426.321.87.321s.736-.105.87-.321a2.614,2.614,0,0,0,.21-1.279,2.641,2.641,0,0,0-.21-1.284c-.134-.222-.426-.333-.87-.333s-.735.111-.87.333a2.729,2.729,0,0,0-.2,1.284,2.7,2.7,0,0,0,.2,1.279" transform="translate(-63.99 -187.541)" fill="#fff"></path><path id="Path_100675" data-name="Path 100675" d="M109.688,234.946a.078.078,0,0,1,.088.088v4.285c0,.064-.029.093-.088.093h-.449a.277.277,0,0,1-.246-.128l-2.113-3.147v3.182c0,.064-.029.093-.088.093h-.578c-.059,0-.088-.029-.088-.093v-4.285a.077.077,0,0,1,.088-.088h.484c.21.006.251.035.35.181l1.979,2.937v-3.03a.077.077,0,0,1,.087-.088Z" transform="translate(-84.766 -187.657)" fill="#fff"></path><path id="Path_100676" data-name="Path 100676" d="M135.689,234.946c.064,0,.093.029.093.088v.478c0,.059-.029.088-.093.088h-2.16v1.308H135.5a.078.078,0,0,1,.088.088v.461a.077.077,0,0,1-.088.088h-1.973v1.214h2.16c.064,0,.093.029.093.088v.479c0,.058-.029.088-.093.088h-2.826a.078.078,0,0,1-.088-.088v-4.291a.078.078,0,0,1,.088-.088Z" transform="translate(-106.051 -187.657)" fill="#fff"></path><path id="Path_100677" data-name="Path 100677" d="M157.062,234.946c.088,0,.111.041.064.129l-1.6,2.942v1.3c0,.064-.029.093-.087.093h-.572c-.058,0-.088-.029-.088-.093v-1.308l-1.594-2.937c-.047-.088-.023-.129.064-.129h.63a.167.167,0,0,1,.158.093l1.115,2.2,1.115-2.2a.167.167,0,0,1,.158-.093Z" transform="translate(-122.334 -187.657)" fill="#fff"></path><path id="Path_100678" data-name="Path 100678" d="M190.567,234.946a.078.078,0,0,1,.088.088v.478a.078.078,0,0,1-.088.088h-1.279v3.725a.077.077,0,0,1-.087.088h-.572a.077.077,0,0,1-.088-.088V235.6h-1.273a.077.077,0,0,1-.087-.088v-.478a.077.077,0,0,1,.087-.088Z" transform="translate(-149.506 -187.657)" fill="#fff"></path><path id="Path_100679" data-name="Path 100679" d="M214.36,235.094a1.438,1.438,0,0,1,.368,1.162,1.735,1.735,0,0,1-.21.975,1.017,1.017,0,0,1-.718.374l.987,1.576c.047.064.018.117-.07.117h-.543a.236.236,0,0,1-.233-.128l-.963-1.518-.712.006v1.553c0,.07-.018.088-.088.088H211.6c-.07,0-.088-.018-.088-.088V234.93c0-.064.017-.076.088-.082.415-.029.882-.046,1.4-.046a2.317,2.317,0,0,1,1.366.292m-2.1.362v1.6h.66a1.5,1.5,0,0,0,.829-.123c.181-.117.216-.292.216-.66,0-.345-.07-.566-.2-.666a1.567,1.567,0,0,0-.841-.152Z" transform="translate(-168.939 -187.542)" fill="#fff"></path><path id="Path_100680" data-name="Path 100680" d="M236.247,234.912a1.151,1.151,0,0,1,.28.572l1.01,3.719c.012.064-.012.093-.07.093h-.6c-.041,0-.064-.029-.082-.093l-.345-1.255h-1.664l-.35,1.255c-.018.064-.041.093-.076.093h-.6c-.058,0-.082-.029-.07-.093l1.039-3.719a1.158,1.158,0,0,1,.275-.566,1.105,1.105,0,0,1,.613-.117,1.173,1.173,0,0,1,.636.111m-.841.765-.449,1.641h1.319l-.438-1.641c-.064-.216-.07-.239-.227-.239-.134,0-.14.023-.2.239" transform="translate(-186.646 -187.541)" fill="#fff"></path><path id="Path_100681" data-name="Path 100681" d="M263.53,234.946a.078.078,0,0,1,.088.088v4.285c0,.064-.029.093-.088.093h-.449a.276.276,0,0,1-.245-.128l-2.113-3.147v3.182c0,.064-.029.093-.088.093h-.578c-.058,0-.088-.029-.088-.093v-4.285a.078.078,0,0,1,.088-.088h.484c.21.006.251.035.35.181l1.979,2.937v-3.03a.077.077,0,0,1,.087-.088Z" transform="translate(-207.643 -187.657)" fill="#fff"></path><path id="Path_100682" data-name="Path 100682" d="M288.76,234.9c.064.012.093.041.093.093v.362c0,.064-.029.1-.088.1h-1.349c-.438,0-.654.152-.654.449V236c0,.257.094.4.391.52l1.185.473a1.008,1.008,0,0,1,.736,1.092v.181a.881.881,0,0,1-.467.864,2.522,2.522,0,0,1-1.138.2,9.943,9.943,0,0,1-1.436-.105.1.1,0,0,1-.082-.105v-.35c0-.064.029-.093.093-.093h1.629q.648,0,.648-.438v-.1c0-.28-.105-.426-.432-.56l-1.261-.5c-.461-.169-.619-.5-.619-1.086v-.134c0-.882.648-1.057,1.576-1.057a8.219,8.219,0,0,1,1.174.1" transform="translate(-228.397 -187.542)" fill="#fff"></path><path id="Path_100683" data-name="Path 100683" d="M312,234.946c.064,0,.094.029.094.088v.478c0,.059-.029.088-.094.088h-2.1v1.308h1.909a.078.078,0,0,1,.088.088v.461a.077.077,0,0,1-.088.088H309.9v1.781a.078.078,0,0,1-.088.088h-.578a.077.077,0,0,1-.088-.088v-4.291a.078.078,0,0,1,.088-.088Z" transform="translate(-246.926 -187.657)" fill="#fff"></path><path id="Path_100684" data-name="Path 100684" d="M333.958,234.946c.064,0,.093.029.093.088v.478c0,.059-.029.088-.093.088H331.8v1.308h1.973a.078.078,0,0,1,.088.088v.461a.077.077,0,0,1-.088.088H331.8v1.214h2.16c.064,0,.093.029.093.088v.479c0,.058-.029.088-.093.088h-2.826a.078.078,0,0,1-.088-.088v-4.291a.078.078,0,0,1,.088-.088Z" transform="translate(-264.413 -187.657)" fill="#fff"></path><path id="Path_100685" data-name="Path 100685" d="M356.833,235.094a1.438,1.438,0,0,1,.368,1.162,1.735,1.735,0,0,1-.21.975,1.017,1.017,0,0,1-.718.374l.987,1.576c.047.064.018.117-.07.117h-.543a.236.236,0,0,1-.234-.128l-.963-1.518-.712.006v1.553c0,.07-.018.088-.088.088h-.578c-.07,0-.088-.018-.088-.088V234.93c0-.064.018-.076.088-.082.415-.029.882-.046,1.4-.046a2.317,2.317,0,0,1,1.366.292m-2.1.362v1.6h.66a1.5,1.5,0,0,0,.829-.123c.181-.117.216-.292.216-.66,0-.345-.07-.566-.2-.666a1.567,1.567,0,0,0-.841-.152Z" transform="translate(-282.735 -187.542)" fill="#fff"></path><path id="Path_100686" data-name="Path 100686" d="M388.986,234.912a1.15,1.15,0,0,1,.28.572l1.01,3.719c.012.064-.012.093-.07.093h-.6c-.041,0-.064-.029-.082-.093l-.345-1.255H387.52l-.35,1.255c-.017.064-.041.093-.076.093h-.6c-.058,0-.082-.029-.07-.093l1.039-3.719a1.158,1.158,0,0,1,.275-.566,1.1,1.1,0,0,1,.613-.117,1.173,1.173,0,0,1,.636.111m-.841.765-.449,1.641h1.319l-.438-1.641c-.064-.216-.07-.239-.227-.239-.134,0-.14.023-.2.239" transform="translate(-308.642 -187.541)" fill="#fff"></path><path id="Path_100687" data-name="Path 100687" d="M415.209,235.094a1.438,1.438,0,0,1,.368,1.162,1.679,1.679,0,0,1-.234,1.016.75.75,0,0,1-.339.245,3.151,3.151,0,0,1-1.162.14h-.73v1.553c0,.07-.018.088-.088.088h-.578c-.07,0-.088-.018-.088-.088V234.93c0-.064.018-.076.088-.082.415-.029.882-.046,1.4-.046a2.317,2.317,0,0,1,1.366.292m-2.1.362v1.6h.66a1.5,1.5,0,0,0,.829-.123c.181-.117.216-.292.216-.66,0-.345-.07-.566-.2-.666a1.567,1.567,0,0,0-.841-.152Z" transform="translate(-329.362 -187.542)" fill="#fff"></path><path id="Path_100688" data-name="Path 100688" d="M438.438,235.094a1.438,1.438,0,0,1,.368,1.162,1.679,1.679,0,0,1-.234,1.016.75.75,0,0,1-.339.245,3.152,3.152,0,0,1-1.162.14h-.73v1.553c0,.07-.018.088-.088.088h-.578c-.07,0-.088-.018-.088-.088V234.93c0-.064.018-.076.088-.082.415-.029.882-.046,1.4-.046a2.317,2.317,0,0,1,1.366.292m-2.1.362v1.6H437a1.5,1.5,0,0,0,.829-.123c.181-.117.216-.292.216-.66,0-.345-.07-.566-.2-.666a1.568,1.568,0,0,0-.841-.152Z" transform="translate(-347.915 -187.542)" fill="#fff"></path></g></svg> 